<?xml version="1.0" encoding="UTF-8"?>
<svg version="1.1" xmlns="http://www.w3.org/2000/svg" viewBox="0 0 511 954">
<path d="M0 0 C4.29 0 8.58 0 13 0 C13 61.38 13 122.76 13 186 C46.33 186 79.66 186 114 186 C114 439.44 114 692.88 114 954 C109.71 954 105.42 954 101 954 C101 708.81 101 463.62 101 211 C96.71 211 92.42 211 88 211 C88 456.19 88 701.38 88 954 C84.04 954 80.08 954 76 954 C76 708.81 76 463.62 76 211 C71.71 211 67.42 211 63 211 C63 456.19 63 701.38 63 954 C59.04 954 55.08 954 51 954 C51 708.81 51 463.62 51 211 C46.71 211 42.42 211 38 211 C38 456.19 38 701.38 38 954 C33.71 954 29.42 954 25 954 C25 708.81 25 463.62 25 211 C21.04 211 17.08 211 13 211 C13 456.19 13 701.38 13 954 C8.71 954 4.42 954 0 954 C0 708.81 0 463.62 0 211 C-4.29 211 -8.58 211 -13 211 C-13 456.19 -13 701.38 -13 954 C-16.96 954 -20.92 954 -25 954 C-25 708.81 -25 463.62 -25 211 C-29.29 211 -33.58 211 -38 211 C-38 456.19 -38 701.38 -38 954 C-41.96 954 -45.92 954 -50 954 C-50 708.81 -50 463.62 -50 211 C-54.29 211 -58.58 211 -63 211 C-63 456.19 -63 701.38 -63 954 C-67.29 954 -71.58 954 -76 954 C-76 708.81 -76 463.62 -76 211 C-79.96 211 -83.92 211 -88 211 C-88 456.19 -88 701.38 -88 954 C-92.29 954 -96.58 954 -101 954 C-101 700.56 -101 447.12 -101 186 C-67.67 186 -34.34 186 0 186 C0 124.62 0 63.24 0 0 Z " fill="#ffffff" transform="translate(397,0)"/>
<path d="M0 0 C70.95 0 141.9 0 215 0 C215 253.44 215 506.88 215 768 C210.71 768 206.42 768 202 768 C202 522.81 202 277.62 202 25 C198.04 25 194.08 25 190 25 C190 270.19 190 515.38 190 768 C185.71 768 181.42 768 177 768 C177 522.81 177 277.62 177 25 C172.71 25 168.42 25 164 25 C164 270.19 164 515.38 164 768 C160.04 768 156.08 768 152 768 C152 522.81 152 277.62 152 25 C147.71 25 143.42 25 139 25 C139 270.19 139 515.38 139 768 C134.71 768 130.42 768 126 768 C126 522.81 126 277.62 126 25 C122.04 25 118.08 25 114 25 C114 270.19 114 515.38 114 768 C109.71 768 105.42 768 101 768 C101 522.81 101 277.62 101 25 C97.04 25 93.08 25 89 25 C89 270.19 89 515.38 89 768 C84.71 768 80.42 768 76 768 C76 522.81 76 277.62 76 25 C71.71 25 67.42 25 63 25 C63 270.19 63 515.38 63 768 C59.04 768 55.08 768 51 768 C51 522.81 51 277.62 51 25 C46.71 25 42.42 25 38 25 C38 270.19 38 515.38 38 768 C34.04 768 30.08 768 26 768 C26 522.81 26 277.62 26 25 C21.71 25 17.42 25 13 25 C13 270.19 13 515.38 13 768 C8.71 768 4.42 768 0 768 C0 514.56 0 261.12 0 0 Z " fill="#ffffff" transform="translate(0,186)"/>
</svg>
